HIERARCHY
ROOT Hips
{
	OFFSET 0.000000 0.000000 0.000000
	CHANNELS 6 Xposition Yposition Zposition Xrotation Yrotation Zrotation
	JOINT LeftUpLeg_virtual
	{
		OFFSET 0.000000 0.000000 0.000000
		CHANNELS 3 Xrotation Yrotation Zrotation
		JOINT LeftUpLeg
		{
			OFFSET 11.394100 -6.187798 -0.413800
			CHANNELS 3 Xrotation Yrotation Zrotation
			JOINT LeftLeg
			{
				OFFSET 0.430247 -32.302673 3.732800
				CHANNELS 3 Xrotation Yrotation Zrotation
				JOINT LeftFoot
				{
					OFFSET -0.430247 -48.264931 -6.423300
					CHANNELS 3 Xrotation Yrotation Zrotation
					JOINT LeftToeBase
					{
						OFFSET 4.230900 -16.068199 23.438400
						CHANNELS 3 Xrotation Yrotation Zrotation
						JOINT LeftToe_End
						{
							OFFSET 4.510700 0.695400 19.974600
							CHANNELS 3 Xrotation Yrotation Zrotation
							End Site
							{
								OFFSET 0 0 0
							}
						}
					}
				}
			}
		}
	}
	JOINT RightUpLeg_virtual
	{
		OFFSET 0.000000 0.000000 0.000000
		CHANNELS 3 Xrotation Yrotation Zrotation
		JOINT RightUpLeg
		{
			OFFSET -11.333700 -6.187798 -0.413800
			CHANNELS 3 Xrotation Yrotation Zrotation
			JOINT RightLeg
			{
				OFFSET -0.430392 -32.302628 3.733000
				CHANNELS 3 Xrotation Yrotation Zrotation
				JOINT RightFoot
				{
					OFFSET 0.430392 -48.264973 -6.423500
					CHANNELS 3 Xrotation Yrotation Zrotation
					JOINT RightToeBase
					{
						OFFSET -4.230900 -16.068199 23.438400
						CHANNELS 3 Xrotation Yrotation Zrotation
						JOINT RightToe_End
						{
							OFFSET -4.510700 0.695400 19.974600
							CHANNELS 3 Xrotation Yrotation Zrotation
							End Site
							{
								OFFSET 0 0 0
							}
						}
					}
				}
			}
		}
	}
	JOINT Spine_virtual
	{
		OFFSET 0.000000 0.000000 0.000000
		CHANNELS 3 Xrotation Yrotation Zrotation
		JOINT Spine
		{
			OFFSET -0.002400 12.777504 0.315300
			CHANNELS 3 Xrotation Yrotation Zrotation
			JOINT Spine1
			{
				OFFSET -0.002067 5.816869 0.032633
				CHANNELS 3 Xrotation Yrotation Zrotation
				JOINT Spine1_split
				{
					OFFSET -0.002067 5.816869 0.032633
					CHANNELS 3 Xrotation Yrotation Zrotation
					JOINT Spine2
					{
						OFFSET -0.002067 5.816869 0.032633
						CHANNELS 3 Xrotation Yrotation Zrotation
						JOINT Neck_virtual
						{
							OFFSET 0.000000 0.000000 0.000000
							CHANNELS 3 Xrotation Yrotation Zrotation
							JOINT Neck
							{
								OFFSET -0.003700 21.199493 -0.826900
								CHANNELS 3 Xrotation Yrotation Zrotation
								JOINT Head
								{
									OFFSET 0.000000 20.442200 4.834800
									CHANNELS 3 Xrotation Yrotation Zrotation
									JOINT HeadTop_End
									{
										OFFSET 0.000000 34.668396 4.968400
										CHANNELS 3 Xrotation Yrotation Zrotation
										End Site
										{
											OFFSET 0 0 0
										}
									}
								}
							}
						}
						JOINT LeftShoulder_virtual
						{
							OFFSET 0.000000 0.000000 0.000000
							CHANNELS 3 Xrotation Yrotation Zrotation
							JOINT LeftShoulder
							{
								OFFSET 3.288150 8.794197 -1.372250
								CHANNELS 3 Xrotation Yrotation Zrotation
								JOINT LeftShoulder_split
								{
									OFFSET 3.288150 8.794197 -1.372250
									CHANNELS 3 Xrotation Yrotation Zrotation
									JOINT LeftArm
									{
										OFFSET 11.953299 -2.279007 -0.146200
										CHANNELS 3 Xrotation Yrotation Zrotation
										JOINT LeftForeArm
										{
											OFFSET 18.448900 0.000000 0.000000
											CHANNELS 3 Xrotation Yrotation Zrotation
											JOINT LeftHand
											{
												OFFSET 29.527798 0.000000 0.000000
												CHANNELS 3 Xrotation Yrotation Zrotation
												End Site
												{
													OFFSET 0 0 0
												}
											}
										}
									}
								}
							}
						}
						JOINT RightShoulder_virtual
						{
							OFFSET 0.000000 0.000000 0.000000
							CHANNELS 3 Xrotation Yrotation Zrotation
							JOINT RightShoulder
							{
								OFFSET -3.249400 8.794197 -1.372250
								CHANNELS 3 Xrotation Yrotation Zrotation
								JOINT RightShoulder_split
								{
									OFFSET -3.249400 8.794197 -1.372250
									CHANNELS 3 Xrotation Yrotation Zrotation
									JOINT RightArm
									{
										OFFSET -11.953299 -2.279007 -0.146200
										CHANNELS 3 Xrotation Yrotation Zrotation
										JOINT RightForeArm
										{
											OFFSET -18.448900 0.000000 0.000000
											CHANNELS 3 Xrotation Yrotation Zrotation
											JOINT RightHand
											{
												OFFSET -29.527802 0.000000 0.000000
												CHANNELS 3 Xrotation Yrotation Zrotation
												End Site
												{
													OFFSET 0 0 0
												}
											}
										}
									}
								}
							}
						}
					}
				}
			}
		}
	}
}
MOTION
Frames: 10
Frame Time: 0.03333333
7.126648 96.046875 112.686417 0.000000 0.000000 0.000000 22.618624 25.667629 -6.349709 -40.739353 11.244670 11.163872 42.297985 13.007238 -3.482852 -2.984820 29.751703 -7.285945 -8.711424 0.837718 -3.234278 0.000000 0.000000 0.000000 23.723603 24.558941 -7.100429 -60.419355 -4.263590 -4.836708 37.989512 -5.726469 -4.940957 1.871870 -6.870156 3.718413 2.630247 0.122807 0.348964 0.000000 0.000000 0.000000 21.521924 20.891209 -5.881525 11.738074 -1.283108 2.563734 8.423219 -2.744890 0.668736 0.733929 3.733911 0.165464 0.000000 0.000000 0.000000 8.863285 -2.867876 0.543568 -6.137035 0.168408 2.592065 -21.132416 0.951334 1.839527 0.000000 0.000000 0.000000 9.078229 -2.934045 0.680342 0.681656 -8.570091 -6.256444 4.288627 -5.117292 0.777741 -26.439288 -23.116188 -31.450402 -0.075206 -25.895617 -0.063980 0.000000 0.000000 0.000000 9.311408 -2.697590 0.805404 2.194184 5.225860 4.269570 4.825211 3.633285 -0.973772 -17.041901 -8.087384 54.305912 0.874647 64.879099 -1.206133 0.000000 0.000000 0.000000 
7.678996 98.529808 115.696060 0.000000 0.000000 0.000000 23.233298 27.756661 -7.014808 -43.360151 10.704096 9.380937 37.067358 12.165641 -3.390545 0.541761 29.190811 -8.390910 -8.805085 0.310384 -1.607937 0.000000 0.000000 0.000000 24.316903 27.321248 -7.909070 -52.338029 -6.509729 -4.979495 31.080906 -6.090261 -5.367514 1.103625 -8.110481 5.066003 1.683799 0.407211 0.649560 0.000000 0.000000 0.000000 22.022613 22.614475 -6.360847 11.128641 -0.249346 2.452940 8.765283 -2.461423 0.694233 0.666687 4.000330 0.067038 0.000000 0.000000 0.000000 9.096105 -2.589857 0.593189 -5.577657 -0.309385 2.015564 -23.662726 -1.890192 0.586336 0.000000 0.000000 0.000000 9.329787 -2.627723 0.578336 0.928970 -8.129607 -6.228841 4.628599 -5.239681 0.783653 -23.823041 -23.587638 -31.211823 0.404921 -24.687977 0.259881 0.000000 0.000000 0.000000 9.706003 -2.342820 0.827840 2.160911 5.525816 4.569854 4.490926 3.474103 -0.718717 -18.791968 -9.217011 55.436503 0.199448 68.929709 -0.655233 0.000000 0.000000 0.000000 
8.392193 99.587486 118.505646 0.000000 0.000000 0.000000 23.232472 29.150551 -7.731190 -46.239510 10.163060 8.556493 33.621169 11.682179 -3.638210 3.207914 28.994317 -8.404506 -7.395031 -0.055235 -0.684998 0.000000 0.000000 0.000000 24.395455 29.397564 -8.722805 -45.015485 -8.818267 -4.676645 26.439398 -6.360695 -5.666127 -1.019981 -9.747279 5.802923 0.282328 0.738669 0.735551 0.000000 0.000000 0.000000 21.956314 24.286245 -6.857933 10.612689 0.770616 2.620407 9.013875 -2.087637 0.540394 0.451850 4.077440 -0.243099 0.000000 0.000000 0.000000 9.177010 -2.280897 0.483599 -5.287521 -0.602545 1.118724 -26.003785 -4.630362 -0.791003 0.000000 0.000000 0.000000 9.574023 -2.282201 0.336455 1.140195 -7.337146 -6.154621 4.537153 -5.217455 0.747662 -21.180446 -23.005616 -30.908454 0.880028 -25.486245 0.637292 0.000000 0.000000 0.000000 10.057670 -1.969183 0.672221 2.106195 6.049355 4.830066 4.019397 3.427318 -0.411877 -19.298308 -9.712333 56.846404 -0.489777 73.561943 -0.020645 0.000000 0.000000 0.000000 
9.152053 99.230286 121.111008 0.000000 0.000000 0.000000 22.484110 30.096450 -8.404803 -49.281700 9.761572 8.215341 32.274146 11.577950 -3.974892 4.201994 29.079312 -7.034991 -5.432037 -0.255260 -0.056985 0.000000 0.000000 0.000000 23.911278 30.893332 -9.397740 -38.799590 -10.870632 -3.911526 25.235859 -6.640651 -5.703415 -5.075501 -11.764331 5.460136 -0.511278 1.068160 0.468390 0.000000 0.000000 0.000000 21.322618 26.081472 -7.388461 10.215765 1.770378 2.988222 9.075171 -1.581744 0.229041 0.378091 4.089403 -0.412230 0.000000 0.000000 0.000000 9.086084 -1.900766 0.226116 -5.262909 -0.907891 0.029014 -27.772121 -7.368044 -1.995761 0.000000 0.000000 0.000000 9.714167 -1.855888 0.008325 1.313381 -6.234901 -5.939040 4.159687 -5.151627 0.812204 -18.705414 -21.413574 -30.598319 1.265538 -28.563494 0.974955 0.000000 0.000000 0.000000 10.298312 -1.517528 0.365291 2.045150 6.821847 4.922400 3.503606 3.474250 -0.181101 -18.766689 -9.408147 58.634995 -0.836328 77.994559 0.311613 0.000000 0.000000 0.000000 
9.842080 97.826340 123.629822 0.000000 0.000000 0.000000 21.201476 30.796889 -8.948624 -52.291655 9.385914 8.008258 32.785594 11.885948 -4.384710 3.766849 28.899688 -4.591003 -4.546036 -0.331224 0.607328 0.000000 0.000000 0.000000 22.845994 31.858652 -9.890283 -33.810512 -12.483427 -2.817005 27.256247 -6.739404 -5.390338 -10.441851 -13.770714 4.450462 -0.864683 1.312483 -0.157778 0.000000 0.000000 0.000000 20.310800 27.996339 -7.913566 9.889474 2.728426 3.340988 8.877201 -0.966683 -0.163389 0.603841 3.987794 -0.470231 0.000000 0.000000 0.000000 8.834024 -1.393858 -0.116840 -5.413124 -1.295050 -1.053848 -28.751797 -10.215079 -2.732208 0.000000 0.000000 0.000000 9.664771 -1.297977 -0.323389 1.430359 -4.915534 -5.503550 3.681886 -4.966130 0.725471 -16.634168 -19.253420 -30.307346 1.423644 -33.509516 1.153618 0.000000 0.000000 0.000000 10.295381 -0.968498 -0.011526 1.966370 7.776332 4.810982 3.046153 3.629649 -0.091785 -17.713300 -8.601944 60.656342 -0.453090 81.593167 -0.128920 0.000000 0.000000 0.000000 
10.539123 96.104065 126.143768 0.000000 0.000000 0.000000 19.627874 31.631070 -9.398782 -55.297058 9.046917 8.154629 34.965333 12.260222 -4.925661 3.678625 27.953632 -2.163514 -5.470842 -0.369036 1.384985 0.000000 0.000000 0.000000 21.452509 32.860252 -10.244300 -29.821644 -13.833723 -1.664870 31.167758 -6.467443 -4.835450 -15.766448 -15.405842 3.465734 -1.277576 1.491383 -1.035891 0.000000 0.000000 0.000000 19.150910 30.177818 -8.450288 9.518628 3.557467 3.451660 8.362772 -0.275907 -0.528112 0.802807 3.630400 -0.461049 0.000000 0.000000 0.000000 8.433910 -0.768581 -0.453498 -5.564798 -1.922596 -2.010275 -28.745220 -13.263327 -2.781263 0.000000 0.000000 0.000000 9.311674 -0.598306 -0.568041 1.483479 -3.631233 -4.857200 3.183203 -4.771118 0.457585 -15.102684 -17.010639 -29.915378 1.291579 -39.451910 1.131250 0.000000 0.000000 0.000000 9.931032 -0.334755 -0.374750 1.878495 8.704412 4.483495 2.794286 3.675327 -0.191388 -16.786279 -7.686773 62.664083 1.303971 84.240200 -2.025581 0.000000 0.000000 0.000000 
11.242598 94.733452 128.887436 0.000000 0.000000 0.000000 18.113204 32.644746 -9.825228 -58.235252 8.802922 8.490314 38.644811 12.677449 -5.549550 5.384215 26.450840 -0.539165 -6.144872 -0.306394 1.164156 0.000000 0.000000 0.000000 20.014978 33.906920 -10.528278 -26.237839 -15.198996 -0.531832 34.809680 -5.680810 -4.286866 -19.566783 -16.424252 2.938614 -2.126691 1.646260 -1.764387 0.000000 0.000000 0.000000 18.038268 32.513186 -9.020256 8.969801 4.180876 3.185785 7.523525 0.419892 -0.790639 1.087510 3.270896 -0.189068 0.000000 0.000000 0.000000 7.877943 -0.063250 -0.734332 -5.611811 -2.776569 -2.739901 -27.697380 -16.446479 -2.014231 0.000000 0.000000 0.000000 8.641723 0.167346 -0.695814 1.445613 -2.525548 -4.098184 2.764444 -4.617939 0.155276 -14.250191 -15.273440 -29.398367 0.926636 -45.298358 0.941977 0.000000 0.000000 0.000000 9.190504 0.325708 -0.659683 1.761279 9.322134 4.006859 2.821959 3.421132 -0.493813 -16.190557 -6.953989 64.515167 4.910839 86.080683 -5.852775 0.000000 0.000000 0.000000 
12.099608 94.067444 131.679993 0.000000 0.000000 0.000000 16.880842 33.864570 -10.242903 -59.966220 8.823433 8.884768 42.270897 13.327468 -6.090086 7.666897 24.741829 0.782616 -6.160439 -0.173925 0.208409 0.000000 0.000000 0.000000 18.721279 34.858888 -10.805124 -22.498373 -16.679283 0.588269 36.556095 -4.574612 -3.908014 -21.339652 -16.873393 2.736426 -3.723488 1.746898 -2.003741 0.000000 0.000000 0.000000 17.179912 34.678141 -9.666023 8.195604 4.516908 2.531580 6.455249 1.039483 -0.936961 1.262555 2.873078 0.020511 0.000000 0.000000 0.000000 7.208936 0.652592 -0.938630 -5.444603 -3.698384 -3.171223 -25.754280 -19.561262 -0.479443 0.000000 0.000000 0.000000 7.706446 0.918738 -0.728238 1.307736 -1.782253 -3.340373 2.397111 -4.548561 -0.157658 -13.864567 -14.572736 -28.712128 0.472722 -50.416628 0.697558 0.000000 0.000000 0.000000 8.097718 0.923514 -0.852140 1.595108 9.423796 3.591027 3.091736 3.062002 -0.879995 -15.878605 -6.589338 66.229216 9.952293 87.274081 -11.111975 0.000000 0.000000 0.000000 
13.196248 94.249214 134.637283 0.000000 0.000000 0.000000 15.982590 35.337606 -10.678702 -59.397927 9.323391 9.224337 44.020914 13.976630 -6.160784 8.359724 22.958784 2.214550 -6.872410 -0.104051 -0.328783 0.000000 0.000000 0.000000 17.822670 35.739300 -11.135256 -18.841425 -18.217812 1.492719 36.211788 -3.427805 -3.749538 -20.811212 -16.956672 2.704229 -6.329723 1.782348 -1.722047 0.000000 0.000000 0.000000 16.556133 36.599692 -10.364889 7.207829 4.484774 1.613162 5.293173 1.516233 -1.027187 1.381877 2.488960 0.177223 0.000000 0.000000 0.000000 6.427561 1.258662 -1.091004 -5.125174 -4.602119 -3.338658 -23.096879 -22.248265 1.673664 0.000000 0.000000 0.000000 6.589606 1.537684 -0.738666 1.067020 -1.494034 -2.681701 1.905310 -4.729653 -0.321337 -13.701441 -15.111790 -28.005869 0.214069 -54.731303 0.598168 0.000000 0.000000 0.000000 6.838786 1.391357 -0.987134 1.395741 8.905312 3.320801 3.424504 2.720752 -1.206875 -15.348972 -6.325416 67.881227 14.443024 87.893647 -15.708921 0.000000 0.000000 0.000000 
14.518260 95.084442 137.775711 0.000000 0.000000 0.000000 15.395564 36.815543 -11.028980 -56.519173 10.082240 9.426682 43.649857 14.264170 -5.674528 6.705330 20.960066 3.362680 -7.891640 -0.152224 -0.290061 0.000000 0.000000 0.000000 17.300388 36.352913 -11.438531 -16.121885 -19.564935 1.872634 35.004019 -2.168691 -3.628540 -17.763353 -16.810011 3.130165 -9.924067 1.658184 -1.123151 0.000000 0.000000 0.000000 15.933001 37.930745 -10.933940 6.248473 4.076633 0.652505 4.221118 1.772610 -1.129534 1.593384 2.124962 0.277360 0.000000 0.000000 0.000000 5.598493 1.655409 -1.235526 -4.782497 -5.239002 -3.255782 -20.139419 -24.087378 4.140138 0.000000 0.000000 0.000000 5.495034 1.910622 -0.815373 0.720961 -1.536945 -2.119695 1.560815 -4.745289 -0.256910 -13.629722 -16.836782 -27.555678 0.342617 -58.421190 0.755682 0.000000 0.000000 0.000000 5.630938 1.656654 -1.101984 1.175309 7.878910 3.259310 3.633712 2.588397 -1.475367 -14.109509 -5.954838 69.581111 12.771419 87.879755 -13.952926 0.000000 0.000000 0.000000 
